<?xml version="1.0" standalone="no"?>
<!DOCTYPE svg PUBLIC "-//W3C//DTD SVG 20010904//EN" "http://www.w3.org/TR/2001/REC-SVG-20010904/DTD/svg10.dtd">
<svg version="1.0" xmlns="http://www.w3.org/2000/svg" width="40px" height="40px" viewBox="0 0 300.000000 283.000000"
        preserveAspectRatio="xMidYMid meet">
        <metadata>
                Created by potrace 1.10, written by Peter Selinger 2001-2011
        </metadata>
        <g transform="translate(0.000000,283.000000) scale(0.100000,-0.100000)" fill="#000000" stroke="none">
                <path d="M648 2511 l-33 -29 -3 -868 c-2 -622 1 -876 9 -895 6 -15 34 -47 62
-71 l52 -43 682 0 682 0 23 23 23 23 3 857 c1 471 0 871 -3 887 -3 17 -27 55
-54 85 l-49 55 -680 3 -681 3 -33 -30z m1266 -17 c3 -9 6 -57 6 -109 0 -97 -9
-120 -47 -113 -15 3 -18 16 -21 91 -4 112 -22 114 -22 3 0 -92 11 -116 55
-116 45 0 58 37 53 155 l-4 105 46 0 c88 0 81 89 80 -915 0 -694 -3 -891 -13
-897 -6 -4 -305 -8 -664 -8 -394 0 -654 -4 -658 -9 -11 -19 92 -22 697 -19
l617 3 23 23 23 23 0 864 c0 879 1 908 35 846 7 -13 10 -309 10 -890 0 -858 0
-871 -20 -891 -20 -20 -33 -20 -692 -20 -611 0 -673 1 -690 17 -10 9 -18 24
-18 35 0 11 -7 18 -18 18 -10 0 -23 5 -30 12 -9 9 -12 221 -12 894 l0 883 22
15 c20 14 96 16 629 16 544 0 607 -2 613 -16z" />
                <path d="M935 2340 c-3 -5 3 -10 15 -10 18 0 20 -4 14 -40 -4 -27 -3 -40 5
-40 6 0 11 17 11 40 0 29 4 40 15 40 8 0 15 5 15 10 0 6 -15 10 -34 10 -19 0
-38 -4 -41 -10z" />
                <path d="M1034 2325 c-14 -21 -15 -31 -5 -51 9 -21 17 -25 43 -22 43 4 61 47
33 78 -25 27 -51 25 -71 -5z m61 -25 c0 -18 -6 -26 -23 -28 -27 -4 -40 22 -22
44 19 22 45 13 45 -16z" />
                <path d="M1210 2300 c0 -46 2 -50 23 -50 48 0 65 56 25 84 -38 27 -48 20 -48
-34z m34 24 c24 -9 21 -54 -4 -54 -16 0 -20 7 -20 30 0 32 1 33 24 24z" />
                <path d="M1315 2330 c-20 -22 -14 -67 10 -77 25 -9 63 6 70 28 8 25 -19 69
-44 69 -10 0 -26 -9 -36 -20z m55 -15 c17 -20 5 -45 -20 -45 -23 0 -35 22 -26
45 7 19 30 19 46 0z" />
                <path d="M1468 2344 c-5 -4 -8 -27 -8 -51 0 -41 1 -43 30 -43 17 0 30 5 30 10
0 6 -9 10 -19 10 -16 0 -20 8 -23 41 -2 22 -6 37 -10 33z" />
                <path d="M1590 2335 c-16 -19 2 -45 31 -45 11 0 19 -4 19 -9 0 -17 -19 -22
-41 -10 -17 9 -20 8 -17 -3 7 -21 64 -22 72 -1 7 18 -16 43 -41 43 -7 0 -13 5
-13 11 0 7 10 9 25 6 16 -3 24 0 22 7 -6 17 -42 19 -57 1z" />
                <path d="M1670 2340 c0 -5 7 -10 15 -10 11 0 15 -11 15 -40 0 -22 5 -40 10
-40 6 0 10 18 10 40 0 30 4 40 16 40 8 0 12 5 9 10 -3 6 -22 10 -41 10 -19 0
-34 -4 -34 -10z" />
                <path d="M1540 2295 c0 -25 5 -45 10 -45 6 0 10 20 10 45 0 25 -4 45 -10 45
-5 0 -10 -20 -10 -45z" />
                <path d="M1906 2125 c-16 -19 -33 -32 -39 -28 -5 3 -3 9 4 14 10 6 6 9 -13 9
-33 0 -35 -10 -9 -35 19 -16 21 -16 49 3 41 30 57 51 46 62 -6 6 -20 -4 -38
-25z" />
                <path d="M810 2108 c0 -10 106 -14 490 -16 431 -2 490 0 490 13 0 13 -60 15
-490 15 -385 0 -490 -3 -490 -12z" />
                <path d="M1838 2074 c-21 -20 -6 -34 37 -34 33 0 45 4 45 14 0 8 -4 18 -10 21
-5 3 -10 -1 -10 -9 0 -22 -47 -21 -52 0 -2 9 -6 12 -10 8z" />
                <path d="M810 2055 c0 -13 39 -15 295 -15 256 0 295 2 295 15 0 13 -39 15
-295 15 -256 0 -295 -2 -295 -15z" />
                <path d="M1905 1930 c-26 -27 -30 -28 -45 -15 -21 19 -30 19 -30 1 0 -7 11
-21 24 -30 23 -15 26 -14 60 22 20 20 36 40 36 44 0 16 -17 7 -45 -22z" />
                <path d="M810 1908 c0 -10 105 -13 490 -13 385 0 490 3 490 13 0 9 -105 12
-490 12 -385 0 -490 -3 -490 -12z" />
                <path d="M1838 1874 c-21 -20 -6 -34 37 -34 38 0 45 3 45 20 0 11 -4 20 -10
20 -5 0 -10 -7 -10 -15 0 -21 -48 -20 -52 1 -2 9 -6 12 -10 8z" />
                <path d="M810 1855 c0 -13 39 -15 295 -15 256 0 295 2 295 15 0 13 -39 15
-295 15 -256 0 -295 -2 -295 -15z" />
                <path d="M1902 1728 c-30 -30 -34 -31 -43 -15 -12 20 -29 23 -29 3 0 -7 11
-21 24 -29 22 -15 25 -14 60 22 20 20 36 40 36 44 0 15 -16 6 -48 -25z" />
                <path d="M810 1713 c0 -10 105 -13 490 -13 314 0 490 4 490 10 0 6 -178 11
-490 12 -387 2 -490 0 -490 -9z" />
                <path d="M1838 1674 c-21 -20 -6 -34 37 -34 38 0 45 3 45 20 0 11 -4 20 -10
20 -5 0 -10 -7 -10 -15 0 -21 -48 -20 -52 1 -2 9 -6 12 -10 8z" />
                <path d="M810 1655 c0 -13 39 -15 295 -15 256 0 295 2 295 15 0 13 -39 15
-295 15 -256 0 -295 -2 -295 -15z" />
                <path d="M810 1513 c0 -10 105 -13 490 -13 385 0 490 3 490 13 0 9 -105 12
-490 12 -385 0 -490 -3 -490 -12z" />
                <path d="M1837 1523 c-4 -3 -7 -24 -7 -45 l0 -38 45 0 45 0 0 45 0 45 -38 0
c-21 0 -42 -3 -45 -7z m63 -38 c0 -20 -5 -25 -25 -25 -20 0 -25 5 -25 25 0 20
5 25 25 25 20 0 25 -5 25 -25z" />
                <path d="M810 1458 c0 -10 66 -13 295 -13 229 0 295 3 295 13 0 9 -66 12 -295
12 -229 0 -295 -3 -295 -12z" />
                <path d="M1905 1330 c-27 -28 -30 -29 -47 -13 -28 25 -35 6 -8 -22 l24 -25 38
37 c21 20 38 41 38 45 0 16 -17 8 -45 -22z" />
                <path d="M810 1315 c0 -13 61 -15 490 -15 429 0 490 2 490 15 0 13 -61 15
-490 15 -429 0 -490 -2 -490 -15z" />
                <path d="M1832 1263 c5 -24 81 -25 86 0 2 9 -1 17 -7 17 -6 0 -11 -4 -11 -10
0 -5 -11 -10 -25 -10 -14 0 -25 5 -25 10 0 6 -5 10 -11 10 -6 0 -9 -7 -7 -17z" />
                <path d="M810 1260 c0 -6 105 -10 295 -10 190 0 295 4 295 10 0 6 -105 10
-295 10 -190 0 -295 -4 -295 -10z" />
                <path d="M810 1115 c0 -13 61 -15 490 -15 429 0 490 2 490 15 0 13 -61 15
-490 15 -429 0 -490 -2 -490 -15z" />
                <path d="M1832 1088 c3 -41 3 -41 43 -42 l40 -1 3 43 3 42 -46 0 -46 0 3 -42z
m68 -3 c0 -20 -5 -25 -25 -25 -20 0 -25 5 -25 25 0 20 5 25 25 25 20 0 25 -5
25 -25z" />
                <path d="M810 1063 c0 -10 66 -13 295 -13 229 0 295 3 295 13 0 9 -66 12 -295
12 -229 0 -295 -3 -295 -12z" />
                <path d="M1905 945 c-27 -32 -30 -33 -47 -18 -28 25 -35 6 -8 -22 l23 -24 41
39 c26 25 37 43 31 49 -7 6 -21 -2 -40 -24z" />
                <path d="M810 915 c0 -13 61 -15 490 -15 429 0 490 2 490 15 0 13 -61 15 -490
15 -429 0 -490 -2 -490 -15z" />
                <path d="M1838 894 c-5 -4 -8 -16 -8 -26 0 -15 8 -18 45 -18 42 0 45 2 45 26
0 14 -4 23 -10 19 -5 -3 -10 -13 -10 -21 0 -24 -48 -18 -52 7 -2 11 -6 17 -10
13z" />
                <path d="M810 865 c0 -13 39 -15 295 -15 256 0 295 2 295 15 0 13 -39 15 -295
15 -256 0 -295 -2 -295 -15z" />
                <path d="M2318 2253 c18 -2 45 -2 60 0 15 2 0 4 -33 4 -33 0 -45 -2 -27 -4z" />
                <path d="M2260 1608 c1 -605 5 -697 29 -721 10 -9 10 -6 2 16 -7 19 -11 243
-11 678 0 426 -3 649 -10 649 -7 0 -10 -214 -10 -622z" />
                <path d="M2410 1581 c0 -434 -4 -659 -11 -678 -8 -21 -7 -25 1 -17 6 6 16 29
21 50 12 52 11 1282 -2 1289 -5 4 -9 -242 -9 -644z" />
                <path d="M2334 2045 c0 -82 2 -115 3 -72 2 43 2 110 0 150 -1 40 -3 5 -3 -78z" />
        </g>
</svg>